<svg width="443" height="560" viewBox="0 0 443 560" fill="none" xmlns="http://www.w3.org/2000/svg">
<g clip-path="url(#clip0_69_15)">
<path d="M244.765 273.8C242.717 272.588 259.321 220.068 259.321 220.068L403.892 25.6599C403.892 25.6599 415.555 23.7 428.012 31.6738C440.469 39.6476 438.097 49.1623 438.097 49.1623L294.72 244.628C294.72 244.628 246.812 275.012 244.765 273.8Z" fill="#D86656"/>
<path d="M251.683 259.323L261.05 226.017C261.05 226.017 262.389 228.489 263.968 229.429C265.548 230.368 267.879 230.443 269.09 231.161C270.301 231.878 270.456 236.207 272.249 237.544C274.042 238.881 279.67 239.089 280.957 239.715C282.243 240.341 282.253 241.136 283.702 242.512C285.15 243.887 288.072 244.634 288.072 244.634L258.365 262.666C258.365 262.666 256.856 260.638 255.392 260.039C253.928 259.44 251.69 259.324 251.69 259.324L251.683 259.323Z" fill="#FDFAE3"/>
<path d="M264.727 220.87C264.727 220.87 261.619 224.183 264.663 225.956C267.708 227.729 270.256 226.395 270.256 226.395C270.256 226.395 385.438 74.9564 385.679 73.9897C385.92 73.0229 377.83 69.3291 376.408 69.605C374.986 69.8809 264.727 220.87 264.727 220.87Z" fill="#ED9484"/>
<path d="M272.991 229.143C272.991 229.143 271.635 232.582 274.687 234.389C277.738 236.196 281.159 234.462 281.159 234.462C281.159 234.462 398.188 82.3795 397.963 81.017C397.738 79.6545 390.887 75.8798 389.305 76.2326C387.723 76.5855 272.991 229.143 272.991 229.143Z" fill="#ED9484"/>
<path d="M285.435 235.918C285.435 235.918 284.507 238.832 287.668 240.647C290.829 242.462 292.548 240.428 292.548 240.428C292.548 240.428 404.527 90.056 405.303 89.0602C406.079 88.0644 402.697 84.1536 401.6 84.2633C400.502 84.373 285.435 235.918 285.435 235.918Z" fill="#ED9484"/>
<path d="M383.089 60.4303L378.085 66.5461C378.085 66.5461 390.642 71.5552 395.499 74.3518C400.355 77.1485 407.06 84.4875 407.06 84.4875L411.756 79.133C411.888 79.14 402.81 70.8519 399.963 69.1478C397.588 67.7303 383.089 60.4303 383.089 60.4303Z" fill="#ED9484"/>
<path d="M390.574 50.7474L385.401 57.5424C385.401 57.5424 399.022 64.3052 402.081 66.2898C405.14 68.2743 413.158 76.2202 413.158 76.2202L418.858 69.3419C418.858 69.3419 409.944 61.2897 406.858 59.2073C403.771 57.1249 390.581 50.7491 390.581 50.7491L390.574 50.7474Z" fill="#ED9484"/>
<path d="M392.176 47.9298L405.533 30.2874C405.533 30.2874 412.359 28.408 424.176 35.3385C435.994 42.269 432.782 48.4742 432.782 48.4742L420.178 66.0446C420.178 66.0446 411.685 57.4993 408.643 55.8958C405.6 54.2924 392.169 47.928 392.169 47.928L392.176 47.9298Z" fill="#CDD5B2"/>
</g>
<g clip-path="url(#clip1_69_15)">
<path d="M290.483 513.852C293.364 512.033 267.864 429.73 267.864 429.73L54.8659 122.202C54.8659 122.202 38.1501 118.749 20.651 130.733C3.14526 142.719 6.85637 157.603 6.85637 157.603L218.197 466.735C218.197 466.735 287.601 515.666 290.482 513.846L290.483 513.852Z" fill="#B1BD8B"/>
<path d="M280.118 491.084L265.609 438.926C265.609 438.926 263.778 442.735 261.565 444.128C259.353 445.528 256.016 445.573 254.313 446.655C252.611 447.736 252.535 454.459 250.024 456.481C247.513 458.502 239.486 458.629 237.668 459.561C235.851 460.493 235.867 461.727 233.851 463.824C231.834 465.921 227.685 466.976 227.685 466.976L270.703 496.059C270.703 496.059 272.787 492.953 274.854 492.082C276.921 491.211 280.112 491.092 280.112 491.092L280.118 491.084Z" fill="#E8EBCC"/>
<path d="M260.176 430.792C260.176 430.792 264.73 436.053 260.441 438.71C256.16 441.371 252.475 439.198 252.475 439.198C252.475 439.198 82.8993 199.557 82.5203 198.037C82.1413 196.517 93.5612 191.049 95.5957 191.527C97.6302 192.005 260.176 430.792 260.176 430.792Z" fill="#FDFAE3"/>
<path d="M248.675 443.388C248.675 443.388 250.729 448.78 246.432 451.493C242.129 454.208 237.198 451.387 237.198 451.387C237.198 451.387 64.9584 210.68 65.2329 208.566C65.5075 206.452 75.1533 200.811 77.4197 201.422C79.6862 202.034 248.675 443.388 248.675 443.388Z" fill="#FDFAE3"/>
<path d="M231.142 453.499C231.142 453.499 232.57 458.062 228.12 460.786C223.671 463.51 221.147 460.274 221.147 460.274C221.147 460.274 56.1755 222.399 55.0375 220.822C53.8927 219.247 58.5892 213.273 60.1598 213.484C61.7303 213.694 231.142 453.499 231.142 453.499Z" fill="#FDFAE3"/>
<path d="M85.7458 177.031L93.1 186.725C93.1 186.725 75.3508 194.092 68.5187 198.271C61.6883 202.458 52.3623 213.649 52.3623 213.649L45.4834 205.15C45.3001 205.155 57.9674 192.57 61.9707 190.019C65.3071 187.894 85.7525 177.029 85.7525 177.029L85.7458 177.031Z" fill="#FDFAE3"/>
<path d="M74.7393 161.708L82.3585 172.464C82.3585 172.464 63.1449 182.522 58.8593 185.506C54.5738 188.49 43.3937 200.582 43.3937 200.582L35.0229 189.684C35.0229 189.684 47.4752 177.461 51.8005 174.323C56.1258 171.185 74.7409 161.714 74.7409 161.714L74.7393 161.708Z" fill="#FDFAE3"/>
<path d="M72.3619 157.266L52.6956 129.345C52.6956 129.345 42.8918 126.187 26.2622 136.565C9.62754 146.952 14.4241 156.715 14.4241 156.715L33.0123 184.494C33.0123 184.494 44.8439 171.488 49.1289 169.099C53.4139 166.71 72.3619 157.266 72.3619 157.266Z" fill="#ED9484"/>
</g>
<defs>
<clipPath id="clip0_69_15">
<rect width="134.038" height="281.372" fill="white" transform="translate(312.07 0.602173) rotate(14)"/>
</clipPath>
<clipPath id="clip1_69_15">
<rect width="190.133" height="440.317" fill="white" transform="translate(0.561523 132.356) rotate(-14)"/>
</clipPath>
</defs>
</svg>
