<svg width="85" height="76" viewBox="0 0 85 76" fill="none" xmlns="http://www.w3.org/2000/svg">
<g clip-path="url(#clip0_192_233)">
<path d="M20.7398 75.7048C21.2497 76.0565 33.1893 65.9179 33.1893 65.9179L69.3991 8.35395C69.3991 8.35395 68.7831 5.31276 65.5304 3.24262C62.2768 1.17148 60.0533 2.85448 60.0533 2.85448L23.4571 60.2558C23.4571 60.2558 20.231 75.3524 20.7408 75.7041L20.7398 75.7048Z" fill="#87B3C2"/>
<path d="M23.8061 72.3467L31.4906 66.1977C31.4906 66.1977 30.7231 66.1635 30.3321 65.8929C29.9402 65.623 29.6944 65.0683 29.3921 64.8609C29.0898 64.6534 27.9603 65.1207 27.4431 64.8452C26.9259 64.5697 26.3317 63.2368 26.0461 62.9994C25.7605 62.7621 25.5554 62.853 25.0608 62.6655C24.5663 62.478 24.0937 61.8596 24.0937 61.8596L22.3024 71.1278C22.3024 71.1278 22.9704 71.2546 23.2636 71.538C23.5568 71.8214 23.8044 72.3465 23.8044 72.3465L23.8061 72.3467Z" fill="#FEFAE1"/>
<path d="M32.4627 64.7087C32.4627 64.7087 31.9081 65.8456 31.1578 65.3182C30.4073 64.7924 30.5076 64.0213 30.5076 64.0213C30.5076 64.0213 58.4672 18.5631 58.6943 18.3912C58.9214 18.2194 60.6507 19.7383 60.716 20.1126C60.7814 20.4868 32.4627 64.7087 32.4627 64.7087Z" fill="#FDFAE3"/>
<path d="M29.5358 63.685C29.5358 63.685 28.7809 64.4133 28.0206 63.8886C27.2596 63.363 27.3791 62.3373 27.3791 62.3373C27.3791 62.3373 55.3269 16.3576 55.6999 16.2526C56.0729 16.1476 57.7046 17.3576 57.7641 17.7802C57.8237 18.2027 29.5358 63.685 29.5358 63.685Z" fill="#FDFAE3"/>
<path d="M26.5937 61.4755C26.5937 61.4755 25.9328 62.04 25.1598 61.4905C24.3867 60.941 24.7476 60.2881 24.7476 60.2881C24.7476 60.2881 52.7406 15.7258 52.923 15.423C53.1047 15.1191 54.8261 15.7783 54.9031 16.0559C54.98 16.3335 26.5937 61.4755 26.5937 61.4755Z" fill="#FDFAE3"/>
<path d="M62.4365 17.431L61.3409 19.3525C61.3409 19.3525 58.8421 16.9109 57.6556 16.0671C56.4681 15.224 53.9313 14.4637 53.9313 14.4637L54.8611 12.7069C54.8472 12.6766 57.8556 13.896 58.5679 14.3832C59.1613 14.7893 62.4373 17.432 62.4373 17.432L62.4365 17.431Z" fill="#FDFAE3"/>
<path d="M64.2126 14.497L62.9581 16.5387C62.9581 16.5387 59.905 14.0444 59.1001 13.5409C58.2953 13.0374 55.4757 12.0314 55.4757 12.0314L56.7 9.85402C56.7 9.85402 59.6326 11.0633 60.466 11.5624C61.2993 12.0616 64.2116 14.4977 64.2116 14.4977L64.2126 14.497Z" fill="#FDFAE3"/>
<path d="M64.7855 13.7824L68.0495 8.50128C68.0495 8.50128 67.8777 6.63673 64.9555 4.59734C62.0315 2.55769 60.7415 4.0566 60.7415 4.0566L57.4243 9.14733C57.4243 9.14733 60.4434 10.197 61.1486 10.7428C61.8539 11.2887 64.7855 13.7824 64.7855 13.7824Z" fill="#FAEBD5"/>
</g>
<defs>
<clipPath id="clip0_192_233">
<rect width="34.5643" height="80.0454" fill="white" transform="translate(63.8246) rotate(52.8783)"/>
</clipPath>
</defs>
</svg>
