<svg width="481" height="364" viewBox="0 0 481 364" fill="none" xmlns="http://www.w3.org/2000/svg">
<g clip-path="url(#clip0_114_86)">
<path d="M174.9 356.633H335.11C340.748 356.633 344.265 350.534 341.454 345.642L261.356 206.752L181.258 67.8614C178.447 62.9699 171.397 62.9699 168.585 67.8614L88.4875 206.752L8.34536 345.642C5.53413 350.534 9.05185 356.633 14.689 356.633H174.9Z" fill="#FAF8EE" stroke="#E3A07C" stroke-width="10" stroke-miterlimit="10"/>
<path d="M481 25.7095V57.7691L266.964 221.132L72.3413 233.802L259.973 208.756" fill="#88B3C3"/>
<path d="M481 90.3591L270.482 227.216L72.3413 233.802L266.964 221.132L481 57.7691V90.3591Z" fill="#A3C5CA"/>
<path d="M481 102.411L274.176 232.535L72.3413 233.802L270.482 227.216L481 79.9427V102.411Z" fill="#E5A178"/>
<path d="M481 128.562L277.752 235.231L71.5171 233.802L273.352 232.535L481 102.411V128.562Z" fill="#D88354"/>
<path d="M480.735 145.624L279.754 243.04L72.3413 233.802H275.81L481 123.406L480.735 145.624Z" fill="#D1672C"/>
<path d="M481 168.107L285.789 251.836L72.3413 233.802L279.754 243.04L480.735 145.624L481 168.107Z" fill="#F7E5C5"/>
</g>
<defs>
<clipPath id="clip0_114_86">
<rect width="481" height="364" fill="white"/>
</clipPath>
</defs>
</svg>


