<svg width="327" height="327" viewBox="0 0 327 327" fill="none" xmlns="http://www.w3.org/2000/svg">
<g clip-path="url(#clip0_278_230)">
<path d="M163.5 27.2501C88.2905 27.2501 27.2505 88.2901 27.2505 163.5C27.2505 238.71 88.2905 299.75 163.5 299.75C238.71 299.75 299.75 238.71 299.75 163.5C299.75 88.2901 238.71 27.2501 163.5 27.2501ZM163.5 68.1251C186.118 68.1251 204.375 86.3826 204.375 109C204.375 131.618 186.118 149.875 163.5 149.875C140.883 149.875 122.625 131.618 122.625 109C122.625 86.3826 140.883 68.1251 163.5 68.1251ZM163.5 261.6C129.438 261.6 99.3267 244.16 81.7505 217.728C82.1592 190.614 136.25 175.763 163.5 175.763C190.614 175.763 244.842 190.614 245.25 217.728C227.674 244.16 197.563 261.6 163.5 261.6Z" fill="#FAF8EE"/>
</g>
<defs>
<clipPath id="clip0_278_230">
<rect width="327" height="327" fill="white"/>
</clipPath>
</defs>
</svg>
