<svg width="176" height="176" viewBox="0 0 176 176" fill="none" xmlns="http://www.w3.org/2000/svg">
<circle cx="88" cy="88" r="88" fill="#FFC7C2"/>
<path d="M176 88C176 74.1033 172.709 60.4042 166.396 48.0241C160.083 35.644 150.928 24.9351 139.68 16.7739C128.432 8.6127 115.412 3.23137 101.684 1.07044C87.9563 -1.0905 73.912 0.0304192 60.7009 4.34141C47.4898 8.6524 35.4875 16.0309 25.6765 25.8728C15.8656 35.7148 8.52499 47.7403 4.2557 60.965C-0.0135905 74.1896 -1.09019 88.2374 1.11404 101.958C3.31827 115.679 8.74066 128.683 16.9373 139.905L88 88H176Z" fill="#AFF4C6"/>
<path d="M176 88C176 76.4437 173.724 65.0005 169.301 54.3239C164.879 43.6472 158.397 33.9462 150.225 25.7746C142.054 17.603 132.353 11.121 121.676 6.6986C110.999 2.27619 99.5563 -5.05143e-07 88 0L88 88H176Z" fill="#0D99FF"/>
<rect x="28" y="52" width="40" height="16" rx="3" fill="#AFF4C6"/>
<path d="M39.9505 64.6094C39.3672 64.6094 38.8476 64.5091 38.3919 64.3086C37.9388 64.1055 37.5807 63.8268 37.3177 63.4727C37.0573 63.1159 36.9232 62.7044 36.9153 62.2383H38.6185C38.6289 62.4336 38.6927 62.6055 38.8099 62.7539C38.9297 62.8997 39.0885 63.013 39.2864 63.0938C39.4843 63.1745 39.707 63.2148 39.9544 63.2148C40.2122 63.2148 40.4401 63.1693 40.638 63.0781C40.8359 62.987 40.9909 62.8607 41.1028 62.6992C41.2148 62.5378 41.2708 62.3516 41.2708 62.1406C41.2708 61.9271 41.2109 61.7383 41.0911 61.5742C40.9739 61.4076 40.8047 61.2773 40.5833 61.1836C40.3646 61.0898 40.1041 61.043 39.8021 61.043H39.056V59.8008H39.8021C40.0573 59.8008 40.2825 59.7565 40.4778 59.668C40.6758 59.5794 40.8294 59.457 40.9388 59.3008C41.0482 59.1419 41.1028 58.957 41.1028 58.7461C41.1028 58.5456 41.0547 58.3698 40.9583 58.2187C40.8646 58.0651 40.7317 57.9453 40.5599 57.8594C40.3906 57.7734 40.1927 57.7305 39.9661 57.7305C39.737 57.7305 39.5273 57.7721 39.3372 57.8555C39.1471 57.9362 38.9948 58.0521 38.8802 58.2031C38.7656 58.3542 38.7044 58.5312 38.6966 58.7344H37.0755C37.0833 58.2734 37.2148 57.8672 37.47 57.5156C37.7252 57.1641 38.069 56.8893 38.5013 56.6914C38.9362 56.4909 39.4271 56.3906 39.9739 56.3906C40.526 56.3906 41.0091 56.4909 41.4232 56.6914C41.8372 56.8919 42.1588 57.1628 42.388 57.5039C42.6198 57.8424 42.7344 58.2227 42.7317 58.6445C42.7344 59.0924 42.595 59.4661 42.3138 59.7656C42.0351 60.0651 41.6719 60.2552 41.2239 60.3359V60.3984C41.8125 60.474 42.2604 60.6784 42.5677 61.0117C42.8776 61.3424 43.0312 61.7565 43.0286 62.2539C43.0312 62.7096 42.8997 63.1146 42.6341 63.4688C42.3711 63.8229 42.0078 64.1016 41.5442 64.3047C41.0807 64.5078 40.5495 64.6094 39.9505 64.6094ZM46.9243 64.6094C46.3722 64.6094 45.88 64.5078 45.4478 64.3047C45.0181 64.1016 44.6769 63.8216 44.4243 63.4648C44.1717 63.1081 44.0402 62.6992 44.0298 62.2383H45.6704C45.6886 62.5482 45.8188 62.7995 46.061 62.9922C46.3032 63.1849 46.591 63.2812 46.9243 63.2812C47.1899 63.2812 47.4243 63.2227 47.6274 63.1055C47.8332 62.9857 47.9933 62.8203 48.1079 62.6094C48.2251 62.3958 48.2837 62.151 48.2837 61.875C48.2837 61.5937 48.2238 61.3464 48.104 61.1328C47.9868 60.9193 47.8241 60.7526 47.6157 60.6328C47.4074 60.513 47.1691 60.4518 46.9009 60.4492C46.6665 60.4492 46.4386 60.4974 46.2173 60.5937C45.9985 60.6901 45.828 60.8216 45.7056 60.9883L44.2017 60.7188L44.5806 56.5H49.4712V57.8828H45.9751L45.7681 59.8867H45.8149C45.9556 59.6888 46.1678 59.5247 46.4517 59.3945C46.7355 59.2643 47.0532 59.1992 47.4048 59.1992C47.8866 59.1992 48.3162 59.3125 48.6938 59.5391C49.0715 59.7656 49.3696 60.0768 49.5884 60.4727C49.8071 60.8659 49.9152 61.319 49.9126 61.832C49.9152 62.3711 49.7902 62.8503 49.5376 63.2695C49.2876 63.6862 48.9373 64.0143 48.4868 64.2539C48.0389 64.4909 47.5181 64.6094 46.9243 64.6094ZM55.2292 63V62.5781C55.2292 62.2578 55.2969 61.9635 55.4323 61.6953C55.5703 61.4245 55.7696 61.2083 56.03 61.0469C56.293 60.8828 56.6133 60.8008 56.9909 60.8008C57.3737 60.8008 57.6953 60.8815 57.9558 61.043C58.2188 61.2044 58.4167 61.4206 58.5495 61.6914C58.6849 61.9596 58.7526 62.2552 58.7526 62.5781V63C58.7526 63.3203 58.6849 63.6159 58.5495 63.8867C58.4141 64.1549 58.2149 64.3698 57.9518 64.5313C57.6888 64.6953 57.3685 64.7773 56.9909 64.7773C56.6081 64.7773 56.2865 64.6953 56.0261 64.5313C55.7656 64.3698 55.5677 64.1549 55.4323 63.8867C55.2969 63.6159 55.2292 63.3203 55.2292 63ZM56.3659 62.5781V63C56.3659 63.1849 56.4102 63.3594 56.4987 63.5234C56.5899 63.6875 56.7539 63.7695 56.9909 63.7695C57.2279 63.7695 57.3893 63.6888 57.4753 63.5273C57.5638 63.3659 57.6081 63.1901 57.6081 63V62.5781C57.6081 62.388 57.5664 62.2109 57.4831 62.0469C57.3998 61.8828 57.2357 61.8008 56.9909 61.8008C56.7565 61.8008 56.5938 61.8828 56.5026 62.0469C56.4115 62.2109 56.3659 62.388 56.3659 62.5781ZM51.1237 58.4219V58C51.1237 57.6771 51.1927 57.3815 51.3308 57.1133C51.4688 56.8424 51.668 56.6263 51.9284 56.4648C52.1914 56.3034 52.5091 56.2227 52.8815 56.2227C53.267 56.2227 53.5899 56.3034 53.8503 56.4648C54.1107 56.6263 54.3086 56.8424 54.444 57.1133C54.5795 57.3815 54.6472 57.6771 54.6472 58V58.4219C54.6472 58.7448 54.5781 59.0404 54.4401 59.3086C54.3047 59.5768 54.1055 59.7917 53.8425 59.9531C53.5821 60.112 53.2617 60.1914 52.8815 60.1914C52.5013 60.1914 52.1797 60.1107 51.9167 59.9492C51.6563 59.7852 51.4584 59.5703 51.3229 59.3047C51.1901 59.0365 51.1237 58.7422 51.1237 58.4219ZM52.2683 58V58.4219C52.2683 58.612 52.3125 58.7878 52.4011 58.9492C52.4922 59.1107 52.6524 59.1914 52.8815 59.1914C53.1211 59.1914 53.2839 59.1107 53.3698 58.9492C53.4584 58.7878 53.5026 58.612 53.5026 58.4219V58C53.5026 57.8099 53.461 57.6328 53.3776 57.4687C53.2943 57.3047 53.1289 57.2227 52.8815 57.2227C52.6498 57.2227 52.4896 57.306 52.4011 57.4727C52.3125 57.6393 52.2683 57.8151 52.2683 58ZM51.6393 64.5L57.1393 56.5H58.1628L52.6628 64.5H51.6393Z" fill="black" fill-opacity="0.8"/>
<rect x="106" y="52" width="42" height="16" rx="3" fill="#0D99FF"/>
<path d="M116.155 64.5V63.2812L119.002 60.6445C119.244 60.4102 119.448 60.1992 119.612 60.0117C119.778 59.8242 119.905 59.6406 119.991 59.4609C120.076 59.2786 120.119 59.082 120.119 58.8711C120.119 58.6367 120.066 58.4349 119.959 58.2656C119.853 58.0937 119.707 57.9622 119.522 57.8711C119.337 57.7773 119.127 57.7305 118.893 57.7305C118.648 57.7305 118.435 57.7799 118.252 57.8789C118.07 57.9779 117.929 58.1198 117.83 58.3047C117.731 58.4896 117.682 58.7096 117.682 58.9648H116.076C116.076 58.4414 116.195 57.987 116.432 57.6016C116.669 57.2161 117.001 56.918 117.428 56.707C117.855 56.4961 118.347 56.3906 118.905 56.3906C119.478 56.3906 119.976 56.4922 120.401 56.6953C120.828 56.8958 121.16 57.1745 121.397 57.5312C121.634 57.888 121.752 58.2969 121.752 58.7578C121.752 59.0599 121.692 59.3581 121.573 59.6523C121.455 59.9466 121.246 60.2734 120.944 60.6328C120.642 60.9896 120.216 61.418 119.666 61.918L118.498 63.0625V63.1172H121.858V64.5H116.155ZM125.763 64.6094C125.211 64.6094 124.719 64.5078 124.287 64.3047C123.857 64.1016 123.516 63.8216 123.263 63.4648C123.011 63.1081 122.879 62.6992 122.869 62.2383H124.509C124.528 62.5482 124.658 62.7995 124.9 62.9922C125.142 63.1849 125.43 63.2812 125.763 63.2812C126.029 63.2812 126.263 63.2227 126.466 63.1055C126.672 62.9857 126.832 62.8203 126.947 62.6094C127.064 62.3958 127.123 62.151 127.123 61.875C127.123 61.5937 127.063 61.3464 126.943 61.1328C126.826 60.9193 126.663 60.7526 126.455 60.6328C126.246 60.513 126.008 60.4518 125.74 60.4492C125.505 60.4492 125.278 60.4974 125.056 60.5937C124.837 60.6901 124.667 60.8216 124.544 60.9883L123.041 60.7188L123.419 56.5H128.31V57.8828H124.814L124.607 59.8867H124.654C124.794 59.6888 125.007 59.5247 125.291 59.3945C125.574 59.2643 125.892 59.1992 126.244 59.1992C126.725 59.1992 127.155 59.3125 127.533 59.5391C127.91 59.7656 128.208 60.0768 128.427 60.4727C128.646 60.8659 128.754 61.319 128.751 61.832C128.754 62.3711 128.629 62.8503 128.376 63.2695C128.126 63.6862 127.776 64.0143 127.326 64.2539C126.878 64.4909 126.357 64.6094 125.763 64.6094ZM134.068 63V62.5781C134.068 62.2578 134.136 61.9635 134.271 61.6953C134.409 61.4245 134.608 61.2083 134.869 61.0469C135.132 60.8828 135.452 60.8008 135.83 60.8008C136.213 60.8008 136.534 60.8815 136.795 61.043C137.058 61.2044 137.256 61.4206 137.388 61.6914C137.524 61.9596 137.591 62.2552 137.591 62.5781V63C137.591 63.3203 137.524 63.6159 137.388 63.8867C137.253 64.1549 137.054 64.3698 136.791 64.5313C136.528 64.6953 136.207 64.7773 135.83 64.7773C135.447 64.7773 135.125 64.6953 134.865 64.5313C134.605 64.3698 134.407 64.1549 134.271 63.8867C134.136 63.6159 134.068 63.3203 134.068 63ZM135.205 62.5781V63C135.205 63.1849 135.249 63.3594 135.338 63.5234C135.429 63.6875 135.593 63.7695 135.83 63.7695C136.067 63.7695 136.228 63.6888 136.314 63.5273C136.403 63.3659 136.447 63.1901 136.447 63V62.5781C136.447 62.388 136.405 62.2109 136.322 62.0469C136.239 61.8828 136.075 61.8008 135.83 61.8008C135.595 61.8008 135.433 61.8828 135.341 62.0469C135.25 62.2109 135.205 62.388 135.205 62.5781ZM129.963 58.4219V58C129.963 57.6771 130.032 57.3815 130.17 57.1133C130.308 56.8424 130.507 56.6263 130.767 56.4648C131.03 56.3034 131.348 56.2227 131.72 56.2227C132.106 56.2227 132.429 56.3034 132.689 56.4648C132.95 56.6263 133.147 56.8424 133.283 57.1133C133.418 57.3815 133.486 57.6771 133.486 58V58.4219C133.486 58.7448 133.417 59.0404 133.279 59.3086C133.144 59.5768 132.944 59.7917 132.681 59.9531C132.421 60.112 132.101 60.1914 131.72 60.1914C131.34 60.1914 131.019 60.1107 130.756 59.9492C130.495 59.7852 130.297 59.5703 130.162 59.3047C130.029 59.0365 129.963 58.7422 129.963 58.4219ZM131.107 58V58.4219C131.107 58.612 131.151 58.7878 131.24 58.9492C131.331 59.1107 131.491 59.1914 131.72 59.1914C131.96 59.1914 132.123 59.1107 132.209 58.9492C132.297 58.7878 132.341 58.612 132.341 58.4219V58C132.341 57.8099 132.3 57.6328 132.216 57.4687C132.133 57.3047 131.968 57.2227 131.72 57.2227C131.489 57.2227 131.328 57.306 131.24 57.4727C131.151 57.6393 131.107 57.8151 131.107 58ZM130.478 64.5L135.978 56.5H137.002L131.502 64.5H130.478Z" fill="white"/>
<rect x="90" y="120" width="52" height="16" rx="3" fill="#FFC7C2"/>
<path d="M104.529 131.094V129.762L107.868 124.5H109.017V126.344H108.337L106.232 129.676V129.738H110.978V131.094H104.529ZM108.368 132.5V130.687L108.4 130.098V124.5H109.986V132.5H108.368ZM115 132.676C114.328 132.673 113.75 132.508 113.265 132.18C112.783 131.852 112.412 131.376 112.152 130.754C111.894 130.132 111.766 129.383 111.769 128.508C111.769 127.635 111.898 126.892 112.156 126.277C112.416 125.663 112.787 125.195 113.269 124.875C113.753 124.552 114.33 124.391 115 124.391C115.669 124.391 116.244 124.552 116.726 124.875C117.21 125.198 117.583 125.667 117.843 126.281C118.104 126.893 118.233 127.635 118.23 128.508C118.23 129.385 118.1 130.135 117.839 130.758C117.582 131.38 117.212 131.855 116.73 132.184C116.248 132.512 115.671 132.676 115 132.676ZM115 131.273C115.458 131.273 115.824 131.043 116.097 130.582C116.371 130.121 116.506 129.43 116.503 128.508C116.503 127.901 116.441 127.396 116.316 126.992C116.194 126.589 116.019 126.285 115.792 126.082C115.569 125.879 115.304 125.777 115 125.777C114.544 125.777 114.179 126.005 113.906 126.461C113.632 126.917 113.494 127.599 113.492 128.508C113.492 129.122 113.553 129.635 113.675 130.047C113.8 130.456 113.976 130.763 114.203 130.969C114.429 131.172 114.695 131.273 115 131.273ZM123.573 131V130.578C123.573 130.258 123.641 129.964 123.776 129.695C123.914 129.424 124.113 129.208 124.374 129.047C124.637 128.883 124.957 128.801 125.335 128.801C125.717 128.801 126.039 128.882 126.3 129.043C126.563 129.204 126.76 129.421 126.893 129.691C127.029 129.96 127.096 130.255 127.096 130.578V131C127.096 131.32 127.029 131.616 126.893 131.887C126.758 132.155 126.559 132.37 126.296 132.531C126.033 132.695 125.712 132.777 125.335 132.777C124.952 132.777 124.63 132.695 124.37 132.531C124.109 132.37 123.911 132.155 123.776 131.887C123.641 131.616 123.573 131.32 123.573 131ZM124.71 130.578V131C124.71 131.185 124.754 131.359 124.842 131.523C124.934 131.687 125.098 131.77 125.335 131.77C125.572 131.77 125.733 131.689 125.819 131.527C125.908 131.366 125.952 131.19 125.952 131V130.578C125.952 130.388 125.91 130.211 125.827 130.047C125.744 129.883 125.579 129.801 125.335 129.801C125.1 129.801 124.938 129.883 124.846 130.047C124.755 130.211 124.71 130.388 124.71 130.578ZM119.467 126.422V126C119.467 125.677 119.536 125.382 119.675 125.113C119.813 124.842 120.012 124.626 120.272 124.465C120.535 124.303 120.853 124.223 121.225 124.223C121.611 124.223 121.934 124.303 122.194 124.465C122.454 124.626 122.652 124.842 122.788 125.113C122.923 125.382 122.991 125.677 122.991 126V126.422C122.991 126.745 122.922 127.04 122.784 127.309C122.648 127.577 122.449 127.792 122.186 127.953C121.926 128.112 121.605 128.191 121.225 128.191C120.845 128.191 120.523 128.111 120.26 127.949C120 127.785 119.802 127.57 119.667 127.305C119.534 127.036 119.467 126.742 119.467 126.422ZM120.612 126V126.422C120.612 126.612 120.656 126.788 120.745 126.949C120.836 127.111 120.996 127.191 121.225 127.191C121.465 127.191 121.628 127.111 121.714 126.949C121.802 126.788 121.846 126.612 121.846 126.422V126C121.846 125.81 121.805 125.633 121.721 125.469C121.638 125.305 121.473 125.223 121.225 125.223C120.994 125.223 120.833 125.306 120.745 125.473C120.656 125.639 120.612 125.815 120.612 126ZM119.983 132.5L125.483 124.5H126.507L121.007 132.5H119.983Z" fill="black" fill-opacity="0.8"/>
</svg>
